<svg id="Capa_1" enable-background="new 0 0 512 512" height="512" viewBox="0 0 512 512" width="512" xmlns="http://www.w3.org/2000/svg"><g><g><g><g><g><g><g><path d="m438.467 403.102h-399.139v-238.443c0-10.643 8.628-19.27 19.27-19.27h360.598c10.643 0 19.27 8.628 19.27 19.27v238.443z" fill="#f0f7ff"/><path d="m419.197 145.389h-63.31c10.643 0 19.27 8.628 19.27 19.27v238.444h63.31v-238.444c0-10.643-8.628-19.27-19.27-19.27z" fill="#e0f2ff"/><path d="m74.74 391.31v-203.75c0-3.733 3.026-6.759 6.759-6.759h314.797c3.733 0 6.759 3.026 6.759 6.759v203.75z" fill="#b1e4f9"/><path d="m403.054 391.31v-203.75c0-3.733-3.026-6.759-6.759-6.759h-21.139v210.51h27.898z" fill="#90d8f9"/><path d="m428.767 444.4h-379.739c-22.935 0-41.528-18.593-41.528-41.528 0-6.385 5.176-11.562 11.562-11.562h439.671c6.385 0 11.562 5.176 11.562 11.562 0 22.935-18.593 41.528-41.528 41.528z" fill="#938bc6"/><path d="m458.733 391.31h-51.7v20.2c0 18.165-14.725 32.89-32.89 32.89h54.624c22.935 0 41.528-18.593 41.528-41.528 0-6.385-5.177-11.562-11.562-11.562z" fill="#8078bc"/></g><path d="m168.383 391.31c0 14.66 11.885 26.545 26.545 26.545h87.938c14.66 0 26.545-11.885 26.545-26.545z" fill="#6b61b1"/></g></g></g></g><path d="m480.324 67.6h-210.336c-13.352 0-24.176 10.824-24.176 24.176v107.462c0 13.352 10.824 24.176 24.176 24.176h29.063c2.195 0 4.281.952 5.72 2.61l45.409 52.34c3.928 4.528 11.37 1.75 11.37-4.245v-43.133c0-4.182 3.39-7.572 7.572-7.572h111.202c13.352 0 24.176-10.824 24.176-24.176v-107.462c0-13.352-10.824-24.176-24.176-24.176z" fill="#ffe07d"/><g fill="#ffd064"><path d="m304.771 226.023 45.409 52.34c3.928 4.528 11.37 1.75 11.37-4.245v-43.133c0-4.182 3.39-7.572 7.572-7.572h-70.07c2.194 0 4.281.953 5.719 2.61z"/><path d="m480.324 67.6h-63.31c13.352 0 24.176 10.824 24.176 24.176v107.462c0 13.352-10.824 24.176-24.176 24.176h63.31c13.352 0 24.176-10.824 24.176-24.176v-107.462c0-13.352-10.824-24.176-24.176-24.176z"/></g><g><path d="m376.17 133.926c-25.83 0-46.842 20.565-47.593 46.213v8.667c0 2.946 2.388 5.334 5.334 5.334h84.519c2.946 0 5.334-2.388 5.334-5.334v-8.667c-.752-25.648-21.764-46.213-47.594-46.213z" fill="#e27d47"/><circle cx="376.17" cy="117.073" fill="#5e54ac" r="25.635"/></g></g><g><path d="m480.324 60.1h-210.336c-17.466 0-31.676 14.209-31.676 31.675v81.525h-156.813c-7.862 0-14.259 6.396-14.259 14.259v196.251h-20.412v-219.151c0-6.49 5.28-11.771 11.77-11.771h152.127c4.143 0 7.5-3.358 7.5-7.5s-3.357-7.5-7.5-7.5h-152.127c-14.761 0-26.77 12.009-26.77 26.771v219.151h-12.766c-10.511.001-19.062 8.552-19.062 19.063 0 27.033 21.993 49.027 49.027 49.027h379.739c27.034 0 49.028-21.994 49.028-49.028 0-10.511-8.552-19.062-19.062-19.062h-12.766v-125.309c0-4.142-3.357-7.5-7.5-7.5s-7.5 3.358-7.5 7.5v125.309h-20.412v-152.896h69.77c17.466 0 31.676-14.209 31.676-31.676v-107.463c0-17.465-14.21-31.675-31.676-31.675zm-398.084 128.201h156.072v10.937c0 17.466 14.21 31.676 31.676 31.676l29.118.025 45.408 52.339c3.884 4.476 9.952 5.985 15.447 3.935 5.521-2.061 9.088-7.201 9.088-13.094v-43.133c0-.04.032-.072.072-.072h26.433v152.897h-313.314zm218.127 210.51c-2.918 6.782-9.662 11.545-17.5 11.545h-87.938c-7.839 0-14.583-4.763-17.5-11.545zm158.365 0c2.24 0 4.062 1.822 4.062 4.062 0 18.763-15.265 34.027-34.028 34.027h-379.739c-18.762 0-34.027-15.265-34.027-34.028 0-2.24 1.822-4.062 4.062-4.062h142.665c3.426 15.175 17.007 26.545 33.202 26.545h87.938c16.195 0 29.776-11.37 33.202-26.545h142.663zm38.268-199.573c0 9.195-7.48 16.676-16.676 16.676h-111.202c-8.311 0-15.072 6.761-15.072 15.072v40.394l-43.613-50.271c-2.865-3.301-7.015-5.194-11.385-5.194h-29.063c-9.195 0-16.676-7.48-16.676-16.676v-107.464c0-9.195 7.48-16.675 16.676-16.675h210.336c9.195 0 16.676 7.48 16.676 16.675v107.463z"/><path d="m404.503 134.24c3.047-5.01 4.803-10.887 4.803-17.167 0-18.271-14.864-33.135-33.136-33.135s-33.136 14.864-33.136 33.135c0 6.28 1.756 12.157 4.803 17.167-31.244 18.609-26.462 53.321-26.76 54.565 0 7.077 5.757 12.834 12.834 12.834h84.519c7.077 0 12.834-5.757 12.834-12.834-.267-1.113 4.415-35.997-26.761-54.565zm-28.333-35.302c10 0 18.136 8.135 18.136 18.135s-8.136 18.136-18.136 18.136-18.136-8.136-18.136-18.136 8.136-18.135 18.136-18.135zm40.094 87.702h-80.187c.234-.876-3.633-28.739 22.814-41.305 5.034 3.089 10.952 4.874 17.279 4.874s12.245-1.785 17.279-4.874c25.721 12.221 22.684 40.816 22.815 41.305z"/></g></g></svg>